<?xml version='1.0' encoding='iso-8859-1'?>
<svg version="1.1" xmlns="http://www.w3.org/2000/svg" viewBox="0 0 489.6 489.6" xmlns:xlink="http://www.w3.org/1999/xlink" enable-background="new 0 0 489.6 489.6">
  <g>
    <g>
      <path d="m293.1,309.45l-102.5-195.8c-8.3-16.7-25-27.1-43.8-27.1h-36.5c-27.1,0-50,22.9-50,51v170.8h-27c-18.8,0-33.3,14.6-33.3,33.3v63.5c0,17.7 14.6,33.3 33.3,33.3h6.5c2.6,28.8 26.5,51 56,51 29.8,0 54-22.8 56.1-52.1h14.9c2.1,29.3 26.2,52.1 56.1,52.1 28.9,0 52.9-22.8 56-52.1h6.6c17.7,0 33.3-15.6 33.3-33.3v-62.5c0-14.9-10.8-28.6-25.7-32.1zm-211.8-171.8c-1.42109e-14-15.6 13.5-29.2 29.2-29.2h36.5c10.4,0 19.8,6.3 25,15.6l51.8,99h-142.5v-85.4zm-0,106.3h153.3l33.8,64.6h-187.1v-64.6zm14.5,223.9c-18.8,0-34.4-15.6-34.4-35.4s15.6-35.4 34.4-35.4 34.4,15.6 34.4,35.4-15.6,35.4-34.4,35.4zm127.1,0c-18.8,0-34.4-15.6-34.4-35.4s15.6-35.4 34.4-35.4 34.4,15.6 34.4,35.4-15.6,35.4-34.4,35.4zm62.5-51h-8.7c-7-23-28.3-39.6-53.8-39.6s-46.7,16.6-53.8,39.6h-19.5c-7-23-28.3-39.6-53.8-39.6-25.8,0-47.4,17.1-54.1,40.6h-8.4c-7.3,0-12.5-5.2-12.5-12.5v-63.5c0-7.3 6.3-12.5 12.5-12.5h252.1c7.3,0 12.5,5.2 12.5,12.5v62.5c0,7.3-6.3,12.5-12.5,12.5z"/>
      <polygon points="362.5,383.45 362.5,0.15 340.6,0.15 340.6,404.35 489.6,404.35 489.6,383.45   "/>
    </g>
  </g>
</svg>
