<?xml version="1.0" encoding="iso-8859-1"?>
<!-- Generator: Adobe Illustrator 19.0.0, SVG Export Plug-In . SVG Version: 6.00 Build 0)  -->
<svg xmlns="http://www.w3.org/2000/svg" xmlns:xlink="http://www.w3.org/1999/xlink" version="1.1" id="Capa_1" x="0px" y="0px" viewBox="0 0 512.006 512.006" style="enable-background:new 0 0 512.006 512.006;" xml:space="preserve" width="512px" height="512px">
<g>
	<g>
		<path d="M475.779,64.95c-2.592-1.392-5.76-1.24-8.208,0.4l-19.568,13.04l-19.56-13.04c-2.688-1.8-6.184-1.8-8.872,0l-19.568,13.04    l-19.56-13.04c-2.688-1.8-6.184-1.8-8.872,0l-19.568,13.04l-16-10.664V8.006c0-3.232-1.944-6.152-4.936-7.392    c-2.992-1.248-6.432-0.552-8.72,1.736l-11.368,11.36L292.443,1.35c-2.688-1.8-6.184-1.8-8.872,0l-19.568,13.04L244.435,1.35    c-2.688-1.8-6.184-1.8-8.872,0l-19.56,13.04l-19.56-13.04c-2.688-1.8-6.184-1.8-8.872,0l-19.568,13.04l-19.56-13.04    c-2.688-1.8-6.184-1.8-8.872,0l-19.56,13.04L100.459,1.35c-2.688-1.8-6.184-1.8-8.872,0L72.003,14.39L52.435,1.35    c-2.688-1.8-6.184-1.8-8.872,0L25.019,13.71L13.659,2.35c-2.28-2.28-5.72-2.976-8.72-1.736c-2.992,1.232-4.936,4.16-4.936,7.392    v456c0,26.472,21.528,48,48,48h224v-16h-224c-17.648,0-32-14.352-32-32V27.318l2.344,2.344c2.696,2.704,6.928,3.096,10.096,1    l19.552-13.04l19.568,13.04c2.688,1.8,6.184,1.8,8.872,0l19.568-13.04l19.552,13.04c2.688,1.8,6.184,1.8,8.872,0l19.56-13.04    l19.56,13.04c2.688,1.8,6.184,1.8,8.872,0l19.584-13.04l19.56,13.04c2.688,1.8,6.184,1.8,8.872,0l19.552-13.04l19.568,13.04    c2.688,1.8,6.184,1.8,8.872,0l19.576-13.04l19.552,13.04c3.168,2.12,7.4,1.704,10.096-1l2.352-2.352v164.696h16V86.95l11.56,7.712    c2.688,1.8,6.184,1.8,8.872,0l19.568-13.04l19.56,13.04c2.688,1.8,6.184,1.8,8.872,0l19.568-13.04l19.56,13.04    c2.688,1.8,6.184,1.8,8.872,0l11.568-7.712v145.056h16v-160C480.003,69.054,478.379,66.342,475.779,64.95z" fill="#e9d758"/>
	</g>
</g>
<g>
	<g>
		<path d="M168.003,48.006c-30.872,0-56,25.128-56,56s25.128,56,56,56s56-25.128,56-56S198.875,48.006,168.003,48.006z     M168.003,144.006c-22.056,0-40-17.944-40-40c0-22.056,17.944-40,40-40c22.056,0,40,17.944,40,40    C208.003,126.062,190.059,144.006,168.003,144.006z" fill="#e9d758"/>
	</g>
</g>
<g>
	<g>
		<rect x="112.003" y="176.006" width="120" height="16" fill="#e9d758"/>
	</g>
</g>
<g>
	<g>
		<rect x="96.003" y="208.006" width="152" height="16" fill="#e9d758"/>
	</g>
</g>
<g>
	<g>
		<rect x="48.003" y="264.006" width="144" height="16" fill="#e9d758"/>
	</g>
</g>
<g>
	<g>
		<rect x="48.003" y="304.006" width="144" height="16" fill="#e9d758"/>
	</g>
</g>
<g>
	<g>
		<rect x="48.003" y="344.006" width="144" height="16" fill="#e9d758"/>
	</g>
</g>
<g>
	<g>
		<rect x="48.003" y="384.006" width="144" height="16" fill="#e9d758"/>
	</g>
</g>
<g>
	<g>
		<rect x="48.003" y="424.006" width="144" height="16" fill="#e9d758"/>
	</g>
</g>
<g>
	<g>
		<path d="M360.003,208.006c-83.816,0-152,68.184-152,152s68.184,152,152,152s152-68.184,152-152S443.819,208.006,360.003,208.006z     M360.003,496.006c-74.992,0-136-61.008-136-136s61.008-136,136-136s136,61.008,136,136S434.995,496.006,360.003,496.006z" fill="#e9d758"/>
	</g>
</g>
<g>
	<g>
		<path d="M360.003,240.006c-66.168,0-120,53.832-120,120s53.832,120,120,120s120-53.832,120-120S426.171,240.006,360.003,240.006z     M368.003,463.598v-15.592h-16v15.592c-50.96-3.904-91.688-44.632-95.592-95.592h15.592v-16h-15.592    c3.904-50.96,44.632-91.688,95.592-95.592v15.592h16v-15.592c50.96,3.904,91.688,44.632,95.592,95.592h-15.592v16h15.592    C459.691,418.966,418.963,459.694,368.003,463.598z" fill="#e9d758"/>
	</g>
</g>
<g>
	<g>
		<path d="M368.003,356.694v-68.688h-16v72c0,2.128,0.84,4.16,2.344,5.656l48,48l11.312-11.312L368.003,356.694z" fill="#e9d758"/>
	</g>
</g>
<g>
</g>
<g>
</g>
<g>
</g>
<g>
</g>
<g>
</g>
<g>
</g>
<g>
</g>
<g>
</g>
<g>
</g>
<g>
</g>
<g>
</g>
<g>
</g>
<g>
</g>
<g>
</g>
<g>
</g>
</svg>
