<?xml version="1.0" encoding="iso-8859-1"?>
<!-- Generator: Adobe Illustrator 17.1.0, SVG Export Plug-In . SVG Version: 6.00 Build 0)  -->
<!DOCTYPE svg PUBLIC "-//W3C//DTD SVG 1.1//EN" "http://www.w3.org/Graphics/SVG/1.1/DTD/svg11.dtd">
<svg version="1.1" id="Capa_1" xmlns="http://www.w3.org/2000/svg" xmlns:xlink="http://www.w3.org/1999/xlink" x="0px" y="0px"
	 viewBox="0 0 342.064 342.064" style="enable-background:new 0 0 342.064 342.064;" xml:space="preserve">
<path d="M269.441,0H72.62C40.527,0,14.417,26.111,14.417,58.205v274.859c0,4.971,4.029,9,9,9h246.024c4.971,0,9-4.029,9-9V115.715
	c27.837-4.338,49.206-28.476,49.206-57.51C327.647,26.111,301.536,0,269.441,0z M72.62,18c22.168,0,40.204,18.036,40.204,40.205
	S94.789,98.409,72.62,98.409S32.417,80.374,32.417,58.205S50.452,18,72.62,18z M260.441,324.064H32.417V100.255
	c10.457,10.002,24.625,16.154,40.204,16.154h187.821V324.064z M269.441,98.409H114.67c10.002-10.457,16.154-24.625,16.154-40.205
	c0-15.579-6.152-29.748-16.154-40.205h154.771c22.169,0,40.206,18.036,40.206,40.205S291.611,98.409,269.441,98.409z M48.532,58.205
	c0-13.283,10.806-24.09,24.088-24.09c4.971,0,9,4.03,9,9s-4.029,9-9,9c-3.357,0-6.088,2.732-6.088,6.09
	c0,3.358,2.731,6.089,6.088,6.089c4.971,0,9,4.029,9,9s-4.029,9-9,9C59.338,82.294,48.532,71.488,48.532,58.205z"/>
<g>
</g>
<g>
</g>
<g>
</g>
<g>
</g>
<g>
</g>
<g>
</g>
<g>
</g>
<g>
</g>
<g>
</g>
<g>
</g>
<g>
</g>
<g>
</g>
<g>
</g>
<g>
</g>
<g>
</g>
</svg>
